<?xml version="1.0" standalone="no"?>
<!DOCTYPE svg PUBLIC "-//W3C//DTD SVG 20010904//EN"
 "http://www.w3.org/TR/2001/REC-SVG-20010904/DTD/svg10.dtd">
<svg version="1.0" xmlns="http://www.w3.org/2000/svg"
 width="1186.000000pt" height="208.000000pt" viewBox="0 0 1186.000000 208.000000"
 preserveAspectRatio="xMidYMid meet">

<g transform="translate(0.000000,208.000000) scale(0.100000,-0.100000)"
fill="#000000" stroke="none">
<path d="M120 1060 l0 -810 480 0 480 0 0 145 0 145 -300 0 -300 0 0 665 0
665 -180 0 -180 0 0 -810z"/>
<path d="M1689 1430 c-229 -36 -411 -206 -464 -434 -21 -89 -21 -273 0 -362
47 -202 180 -337 385 -391 46 -11 104 -16 200 -16 144 1 240 16 338 56 l57 22
3 128 c1 70 0 127 -2 127 -3 0 -20 -9 -38 -19 -103 -61 -291 -87 -408 -57 -90
23 -139 59 -172 126 -14 30 -29 70 -32 88 l-5 32 379 0 380 0 0 108 c-1 211
-44 345 -145 451 -62 65 -126 104 -206 124 -73 20 -202 27 -270 17z m191 -252
c57 -29 90 -86 97 -168 l6 -60 -217 0 -218 0 7 31 c39 175 189 265 325 197z"/>
<path d="M2885 1429 c-78 -10 -234 -50 -289 -73 l-36 -15 0 -131 c0 -73 3
-130 8 -128 142 71 189 90 261 104 160 31 270 3 311 -81 20 -42 27 -105 12
-105 -37 0 -378 -53 -421 -66 -124 -36 -204 -98 -250 -194 -23 -49 -26 -67
-26 -165 0 -94 3 -117 23 -160 106 -231 465 -261 632 -52 l45 56 3 -85 3 -84
164 0 165 0 0 398 c0 439 -4 476 -62 584 -49 93 -140 158 -258 186 -68 16
-207 22 -285 11z m275 -701 c0 -190 -160 -311 -310 -235 -57 28 -83 74 -77
136 10 90 75 134 233 155 54 8 111 14 127 15 l27 1 0 -72z"/>
<path d="M4104 1430 c-182 -25 -308 -100 -366 -218 -19 -40 -23 -63 -23 -147
0 -89 3 -106 27 -151 48 -90 125 -141 316 -208 159 -55 192 -78 192 -132 0
-49 -9 -63 -54 -87 -35 -18 -57 -22 -146 -22 -112 0 -197 21 -289 71 -24 13
-45 24 -47 24 -2 0 -4 -63 -4 -139 l0 -139 48 -16 c87 -28 176 -39 307 -39
200 1 338 45 432 139 70 70 88 120 88 239 0 117 -15 155 -88 222 -55 51 -113
81 -245 127 -125 43 -155 58 -181 92 -29 37 -26 70 7 104 70 69 248 63 425
-15 16 -7 17 1 15 126 l-3 134 -80 17 c-100 21 -251 29 -331 18z"/>
<path d="M5219 1430 c-229 -36 -411 -206 -464 -434 -21 -89 -21 -273 0 -362
47 -202 180 -337 385 -391 46 -11 104 -16 200 -16 144 1 240 16 338 56 l57 22
3 128 c1 70 0 127 -2 127 -3 0 -20 -9 -38 -19 -103 -61 -291 -87 -408 -57 -90
23 -139 59 -172 126 -14 30 -29 70 -32 88 l-5 32 379 0 380 0 0 108 c-1 211
-44 345 -145 451 -62 65 -126 104 -206 124 -73 20 -202 27 -270 17z m191 -252
c57 -29 90 -86 97 -168 l6 -60 -217 0 -218 0 7 31 c39 175 189 265 325 197z"/>
</g>
</svg>
